@startuml
class CellRange {
    + GetEnumerator() : IEnumerator<CellModel>
    - GetEnumerator() : IEnumerator
}
class "List`1"<T> {
}
class "IEnumerable`1"<T> {
}
"IEnumerable`1" "<CellModel>" <|-- CellRange
CellRange o-> "_cells<CellModel>" "List`1"
CellRange --> "Texts<string>" "IEnumerable`1"
CellRange --> "Values<double>" "IEnumerable`1"
@enduml
