@startuml
class CornerCellViewModel {
    + <<override>> BackgroundColorHex : string <<get>> <<set>>
    + ImportingTemplateName : string <<get>> <<set>>
    + NewSheetNameForImportedTemplates : string <<get>> <<set>>
}
class "IEnumerable`1"<T> {
}
SpecialCellViewModel <|-- CornerCellViewModel
CornerCellViewModel --> "PossibleTemplates<string>" "IEnumerable`1"
@enduml
