@startuml
class "UserList`1"<T> {
    - UserList(collectionName:string)
    + {static} GetOrCreate(collectionName:string) : UserList<T>
    + GetEnumerator() : IEnumerator<T>
    - GetEnumerator() : IEnumerator
    + Add(item:T) : void
    + Remove(item:T) : void
    + RemoveAt(index:int) : void
    + Count : int <<get>>
}
class UserList {
    - UserList()
}
class "IEnumerable`1"<T> {
}
class "Dictionary`2"<T1,T2> {
}
class "List`1"<T> {
}
"IEnumerable`1" "<T>" <|-- "UserList`1"
"UserList`1" o-> "UserListsOfT<string,UserList<T>>" "Dictionary`2"
"UserList`1" --> "_userCollection" UserCollection
UserList o-> "AllUserListNames<string>" "List`1"
@enduml
